{"title":"Naruto Shippuuden - 342 [720p] [ENG-SUBBED] [GWC].mkv","uid":9336414,"size":92218444,"categoryP":"video","categoryS":"tv_shows","magnet":"?xt=urn:btih:9f702d603a3e6142e4df8cc556d4477c76de5058&amp;dn=Naruto+Shippuuden+-+342+%5B720p%5D+%5BENG-SUBBED%5D+%5BGWC%5D.mkv&amp;tr=udp%3A%2F%2Ftracker.openbittorrent.com%3A80&amp;tr=udp%3A%2F%2Fopen.demonii.com%3A1337&amp;tr=udp%3A%2F%2Ftracker.coppersurfer.tk%3A6969&amp;tr=udp%3A%2F%2Fexodus.desync.com%3A6969","seeders":0,"leechers":0,"uploader":"canc232","files":1,"time":1386862403,"description":"Naruto Shippuuden - 342 [720p] [ENG-SUBBED] [GWC] \nNaruto Shippuuden Ep : 342 - The Secret of the Transportation Technique\n\n\nTHUMBNAIL IMAGE :\n &lt;a href=&quot;\nhttp://img198.imageshack.us/img198/4180/he3y.jpg&quot; rel=&quot;nofollow&quot; target=&quot;_NEW&quot;&gt;\nhttp://img198.imageshack.us/img198/4180/he3y.jpg&lt;/a&gt;\n\n\nMEDIA INFO :\nGeneral \nFormat : Matroska \nFile size : 87.9 MiB \nDuration : 21mn 40s \nOverall bit rate mode : Variable \nOverall bit rate : 567 Kbps \nWriting application : mkvmerge v6.6.0 ('The Edge Of The In Between')\n\nVideo \nFormat : AVC \nFormat profile : &lt;a class=&quot;__cf_email__&quot; href=&quot;/cdn-cgi/l/email-protection&quot; data-cfemail=&quot;7139181619313d455f41&quot;&gt;[email&amp;#160;protected]&lt;/a&gt;&lt;script data-cfhash='f9e31' type=&quot;text/javascript&quot;&gt;\n/* &lt;![CDATA[ */!function(){try{var t=&quot;currentScript&quot;in document?document.currentScript:function(){for(var t=document.getElementsByTagName(&quot;script&quot;),e=t.length;e--;)if(t[e].getAttribute(&quot;data-cfhash&quot;))return t[e]}();if(t&amp;&amp;t.previousSibling){var e,r,n,i,c=t.previousSibling,a=c.getAttribute(&quot;data-cfemail&quot;);if(a){for(e=&quot;&quot;,r=parseInt(a.substr(0,2),16),n=2;a.length-n;n+=2)i=parseInt(a.substr(n,2),16)^r,e+=String.fromCharCode(i);e=document.createTextNode(e),c.parentNode.replaceChild(e,c)}t.parentNode.removeChild(t);}}catch(u){}}()/* ]]&gt; */&lt;/script&gt; \nFormat settings, CABAC : Yes \nFormat settings, ReFrames : 11 frames\nDuration : 21mn 40s \nBit rate : 510 Kbps \nWidth : 1 280 pixels \nHeight : 720 pixels \nDisplay aspect ratio : 16:9 \nFrame rate : 23.976 fps \nStream size : 77.5 MiB (88%) \nTitle : Naruto Shippuuden - 342 [720p] [ENG-SUBBED] [GWC] \nWriting library : x264 core\nLanguage : English  \n\nAudio \nFormat : Vorbis \nDuration : 21mn 40s \nBit rate mode : Variable \nChannel(s) : 2 channels \nSampling rate : 44.1 KHz \nStream size : 8.68 MiB (10%) \nWriting library : aoTuV \n\nText \nFormat : UTF-8 \nCodec ID : S_TEXT/UTF8  \nTitle : [GWC] \nLanguage : English \n","torrent":{"xt":"urn:btih:9f702d603a3e6142e4df8cc556d4477c76de5058","amp;dn":"Naruto+Shippuuden+-+342+%5B720p%5D+%5BENG-SUBBED%5D+%5BGWC%5D.mkv","amp;tr":["udp%3A%2F%2Ftracker.openbittorrent.com%3A80","udp%3A%2F%2Fopen.demonii.com%3A1337","udp%3A%2F%2Ftracker.coppersurfer.tk%3A6969","udp%3A%2F%2Fexodus.desync.com%3A6969"],"infoHash":"9f702d603a3e6142e4df8cc556d4477c76de5058","infoHashBuffer":{"type":"Buffer","data":[159,112,45,96,58,62,97,66,228,223,140,197,86,212,71,124,118,222,80,88]},"announce":[],"urlList":[]}}